<svg width="300" height="300" viewBox="0 0 300 300" fill="none" xmlns="http://www.w3.org/2000/svg">
<path d="M106.784 200V299.883L193.333 249.942L106.784 200Z" fill="#1E1A18"/>
<path d="M193.45 250.175V150.175L106.901 200.117L193.45 250.175Z" fill="#474442"/>
<path d="M280 200.117V100.234L193.45 150.175L280 200.117Z" fill="#474442"/>
<path d="M193.333 149.941V249.941L279.883 200L193.333 149.941Z" fill="#1E1A18"/>
<path d="M20 250.058L106.55 300V200.117L20 250.058Z" fill="#FF5151"/>
<path d="M106.784 200.117L20.2339 150.058V250.058L106.784 200.117Z" fill="#FC2222"/>
<path d="M106.784 100.117L20.2339 50.1754V150.058L106.784 100.117Z" fill="#FC2222"/>
<path d="M20 150.058L106.55 200.117V100.117L20 150.058Z" fill="#FF5151"/>
<path d="M106.784 0L20.2339 49.9415L106.784 99.883V0Z" fill="#00FEC1"/>
<path d="M106.667 100.117L193.216 50.1754L106.667 0.233887V100.117Z" fill="#00E0AA"/>
<path d="M193.216 150.058L279.766 100.117L193.216 50.1754V150.058Z" fill="#00E0AA"/>
<path d="M193.333 49.9415L106.784 99.883L193.333 149.942V49.9415Z" fill="#00FEC1"/>
</svg>
